{"title":"Changing Lanes 2002 DVD9rip English Klam","uid":7186216,"size":1628988084,"categoryP":"video","categoryS":"movies","magnet":"?xt=urn:btih:ee888a91487ddcea544d463b9e1951ea351aa142&amp;dn=Changing+Lanes+2002+DVD9rip+English+Klam&amp;tr=udp%3A%2F%2Ftracker.openbittorrent.com%3A80&amp;tr=udp%3A%2F%2Fopen.demonii.com%3A1337&amp;tr=udp%3A%2F%2Ftracker.coppersurfer.tk%3A6969&amp;tr=udp%3A%2F%2Fexodus.desync.com%3A6969","seeders":1,"leechers":0,"uploader":"Klambake","files":-1,"time":1334434779,"description":"With: Ben Affleck, Samuel L. Jackson and Sydney Pollack\n\nDe ambitieuze advocaat Gavin Banek moet een belangrijk dossier afleveren bij de rechtbank. De wanhopige vader Doyle Gibson heeft net een nieuw huis voor zijn ex-vrouw en twee zoontjes gekocht in de hoop ze terug te krijgen. Wanneer de twee in een verkeersongeluk met elkaar terecht komen raakt Banek z'n dossier kwijt, en mist Gibson een belangrijke afspraak bij de rechtbank. De ruzie die op het ongeluk volgt escaleert aangezien Banek wanhopig is om zijn dossier terug te krijgen.\n\nThe story of what happens one day in New York when a young lawyer and a businessman share a small automobile accident on F.D.R. Drive and their mutual road rage escalates into a feud. \n\n------------------------ Dutch Friends ------------------------\n---------------------------------------------------------------\n- Bezoek ook eens mijn vrienden op: &lt;a href=&quot; http://www.Film-Test.nl&quot; rel=&quot;nofollow&quot; target=&quot;_NEW&quot;&gt; http://www.Film-Test.nl&lt;/a&gt; --\n----- voor mijn Nederlandse Sync. ondertitels ---- en meer ----\n------- http://www.Film-Test.nl ---- voor Films en meer -------\n---------------------------------------------------------------\n\nGeneral:\n\nComplete name                    : Changing LanesChanging Lanes.avi\nFormat                           : AVI\nFormat/Info                      : Audio Video Interleave\nFile size                        : 1.52 GiB\nDuration                         : 1h 34mn\nOverall bit rate                 : 2 294 Kbps\n\nVideo:\n\nFormat                           : MPEG-4 Visual\nFormat profile                   : Simple@L3\nFormat settings, BVOP            : No\nFormat settings, QPel            : No\nFormat settings, GMC             : No warppoints\nFormat settings, Matrix          : Default (H.263)\nCodec ID                         : XVID\nCodec ID/Hint                    : XviD\nDuration                         : 1h 34mn\nBit rate                         : 1 835 Kbps\nWidth                            : 720 pixels\nHeight                           : 304 pixels\nDisplay aspect ratio             : 2.35:1\nFrame rate                       : 25.000 fps\nColor space                      : YUV\nChroma subsampling               : 4:2:0\nBit depth                        : 8 bits\nScan type                        : Progressive\nCompression mode                 : Lossy\nBits/(Pixel*Frame)               : 0.335\nStream size                      : 1.21 GiB (80%)\nWriting library                  : XviD 1.1.2 (UTC 2006-11-01)\n\nAudio:\n\nFormat                           : AC-3\nFormat/Info                      : Audio Coding 3\nMode extension                   : CM (complete main)\nCodec ID                         : 2000\nDuration                         : 1h 34mn\nBit rate mode                    : Constant\nBit rate                         : 448 Kbps\nChannel(s)                       : 6 channels\nChannel positions                : Front: L C R, Side: L R, LFE\nSampling rate                    : 48.0 KHz\nBit depth                        : 16 bits\nCompression mode                 : Lossy\nStream size                      : 303 MiB (20%)\nAlignment                        : Aligned on interleaves\nInterleave, duration             : 32 ms (0.80 video frame)\nInterleave, preload duration     : 64 ms\n\n","torrent":{"xt":"urn:btih:ee888a91487ddcea544d463b9e1951ea351aa142","amp;dn":"Changing+Lanes+2002+DVD9rip+English+Klam","amp;tr":["udp%3A%2F%2Ftracker.openbittorrent.com%3A80","udp%3A%2F%2Fopen.demonii.com%3A1337","udp%3A%2F%2Ftracker.coppersurfer.tk%3A6969","udp%3A%2F%2Fexodus.desync.com%3A6969"],"infoHash":"ee888a91487ddcea544d463b9e1951ea351aa142","infoHashBuffer":{"type":"Buffer","data":[238,136,138,145,72,125,220,234,84,77,70,59,158,25,81,234,53,26,161,66]},"announce":[],"urlList":[]}}